<?xml version="1.0" encoding="UTF-8" standalone="no"?>
<!DOCTYPE svg PUBLIC "-//W3C//DTD SVG 1.1//EN"
 "http://www.w3.org/Graphics/SVG/1.1/DTD/svg11.dtd">
<!-- Generated by graphviz version 2.40.1 (20161225.0304)
 -->
<!-- Title: %3 Pages: 1 -->
<svg width="1695pt" height="548pt"
 viewBox="0.00 0.00 1695.00 548.00" xmlns="http://www.w3.org/2000/svg" xmlns:xlink="http://www.w3.org/1999/xlink">
<g id="graph0" class="graph" transform="scale(1 1) rotate(0) translate(4 544)">
<title>%3</title>
<polygon fill="#ffffff" stroke="transparent" points="-4,4 -4,-544 1690.9983,-544 1690.9983,4 -4,4"/>
<!-- [root] aws_instance.ec2_course -->
<g id="node1" class="node">
<title>[root] aws_instance.ec2_course</title>
<polygon fill="none" stroke="#000000" points="418.4983,-324 265.4983,-324 265.4983,-288 418.4983,-288 418.4983,-324"/>
<text text-anchor="middle" x="341.9983" y="-302.3" font-family="Times,serif" font-size="14.00" fill="#000000">aws_instance.ec2_course</text>
</g>
<!-- [root] aws_key_pair.key_course2 -->
<g id="node4" class="node">
<title>[root] aws_key_pair.key_course2</title>
<polygon fill="none" stroke="#000000" points="494.9983,-180 330.9983,-180 330.9983,-144 494.9983,-144 494.9983,-180"/>
<text text-anchor="middle" x="412.9983" y="-158.3" font-family="Times,serif" font-size="14.00" fill="#000000">aws_key_pair.key_course2</text>
</g>
<!-- [root] aws_instance.ec2_course&#45;&gt;[root] aws_key_pair.key_course2 -->
<g id="edge1" class="edge">
<title>[root] aws_instance.ec2_course&#45;&gt;[root] aws_key_pair.key_course2</title>
<path fill="none" stroke="#000000" d="M281.991,-287.8742C265.1414,-279.7105 248.7683,-268.1533 238.9983,-252 230.7179,-238.3093 229.5083,-228.8817 238.9983,-216 245.0247,-207.8198 288.8361,-194.2474 330.9843,-182.7565"/>
<polygon fill="#000000" stroke="#000000" points="332.0415,-186.0965 340.7848,-180.1126 330.2183,-179.338 332.0415,-186.0965"/>
</g>
<!-- [root] aws_security_group.demo&#45;web -->
<g id="node9" class="node">
<title>[root] aws_security_group.demo&#45;web</title>
<polygon fill="none" stroke="#000000" points="435.4983,-252 248.4983,-252 248.4983,-216 435.4983,-216 435.4983,-252"/>
<text text-anchor="middle" x="341.9983" y="-230.3" font-family="Times,serif" font-size="14.00" fill="#000000">aws_security_group.demo&#45;web</text>
</g>
<!-- [root] aws_instance.ec2_course&#45;&gt;[root] aws_security_group.demo&#45;web -->
<g id="edge2" class="edge">
<title>[root] aws_instance.ec2_course&#45;&gt;[root] aws_security_group.demo&#45;web</title>
<path fill="none" stroke="#000000" d="M341.9983,-287.8314C341.9983,-280.131 341.9983,-270.9743 341.9983,-262.4166"/>
<polygon fill="#000000" stroke="#000000" points="345.4984,-262.4132 341.9983,-252.4133 338.4984,-262.4133 345.4984,-262.4132"/>
</g>
<!-- [root] aws_security_group.securitygroup_course -->
<g id="node10" class="node">
<title>[root] aws_security_group.securitygroup_course</title>
<polygon fill="none" stroke="#000000" points="698.4983,-252 453.4983,-252 453.4983,-216 698.4983,-216 698.4983,-252"/>
<text text-anchor="middle" x="575.9983" y="-230.3" font-family="Times,serif" font-size="14.00" fill="#000000">aws_security_group.securitygroup_course</text>
</g>
<!-- [root] aws_instance.ec2_course&#45;&gt;[root] aws_security_group.securitygroup_course -->
<g id="edge3" class="edge">
<title>[root] aws_instance.ec2_course&#45;&gt;[root] aws_security_group.securitygroup_course</title>
<path fill="none" stroke="#000000" d="M400.7444,-287.9243C433.1508,-277.9531 473.5622,-265.5188 507.4103,-255.104"/>
<polygon fill="#000000" stroke="#000000" points="508.6997,-258.3693 517.2281,-252.0831 506.641,-251.6788 508.6997,-258.3693"/>
</g>
<!-- [root] aws_subnet.subnet_course -->
<g id="node11" class="node">
<title>[root] aws_subnet.subnet_course</title>
<polygon fill="none" stroke="#000000" points="192.4983,-252 31.4983,-252 31.4983,-216 192.4983,-216 192.4983,-252"/>
<text text-anchor="middle" x="111.9983" y="-230.3" font-family="Times,serif" font-size="14.00" fill="#000000">aws_subnet.subnet_course</text>
</g>
<!-- [root] aws_instance.ec2_course&#45;&gt;[root] aws_subnet.subnet_course -->
<g id="edge4" class="edge">
<title>[root] aws_instance.ec2_course&#45;&gt;[root] aws_subnet.subnet_course</title>
<path fill="none" stroke="#000000" d="M284.2565,-287.9243C252.4041,-277.9531 212.6834,-265.5188 179.4139,-255.104"/>
<polygon fill="#000000" stroke="#000000" points="180.3529,-251.7305 169.7639,-252.0831 178.2616,-258.4109 180.3529,-251.7305"/>
</g>
<!-- [root] var.ami_id -->
<g id="node16" class="node">
<title>[root] var.ami_id</title>
<polygon fill="none" stroke="#000000" points="786.9983,-252 716.9983,-252 716.9983,-216 792.9983,-216 792.9983,-246 786.9983,-252"/>
<polyline fill="none" stroke="#000000" points="786.9983,-252 786.9983,-246 "/>
<polyline fill="none" stroke="#000000" points="792.9983,-246 786.9983,-246 "/>
<text text-anchor="middle" x="754.9983" y="-230.3" font-family="Times,serif" font-size="14.00" fill="#000000">var.ami_id</text>
</g>
<!-- [root] aws_instance.ec2_course&#45;&gt;[root] var.ami_id -->
<g id="edge5" class="edge">
<title>[root] aws_instance.ec2_course&#45;&gt;[root] var.ami_id</title>
<path fill="none" stroke="#000000" d="M418.7854,-299.413C493.3032,-291.9067 609.1596,-277.277 706.9983,-252 707.1007,-251.9736 707.2031,-251.947 707.3056,-251.9203"/>
<polygon fill="#000000" stroke="#000000" points="708.3671,-255.2565 716.9808,-249.0875 706.4002,-248.5385 708.3671,-255.2565"/>
</g>
<!-- [root] aws_internet_gateway.gw_course -->
<g id="node2" class="node">
<title>[root] aws_internet_gateway.gw_course</title>
<polygon fill="none" stroke="#000000" points="1348.9983,-252 1148.9983,-252 1148.9983,-216 1348.9983,-216 1348.9983,-252"/>
<text text-anchor="middle" x="1248.9983" y="-230.3" font-family="Times,serif" font-size="14.00" fill="#000000">aws_internet_gateway.gw_course</text>
</g>
<!-- [root] aws_vpc.example -->
<g id="node14" class="node">
<title>[root] aws_vpc.example</title>
<polygon fill="none" stroke="#000000" points="632.9983,-180 518.9983,-180 518.9983,-144 632.9983,-144 632.9983,-180"/>
<text text-anchor="middle" x="575.9983" y="-158.3" font-family="Times,serif" font-size="14.00" fill="#000000">aws_vpc.example</text>
</g>
<!-- [root] aws_internet_gateway.gw_course&#45;&gt;[root] aws_vpc.example -->
<g id="edge6" class="edge">
<title>[root] aws_internet_gateway.gw_course&#45;&gt;[root] aws_vpc.example</title>
<path fill="none" stroke="#000000" d="M1148.9197,-217.3334C1145.575,-216.869 1142.2608,-216.4229 1138.9983,-216 960.6515,-192.881 749.3262,-175.2026 643.4964,-167.0133"/>
<polygon fill="#000000" stroke="#000000" points="643.5193,-163.5048 633.2802,-166.2269 642.982,-170.4842 643.5193,-163.5048"/>
</g>
<!-- [root] aws_key_pair.key_course -->
<g id="node3" class="node">
<title>[root] aws_key_pair.key_course</title>
<polygon fill="none" stroke="#000000" points="406.4983,-396 249.4983,-396 249.4983,-360 406.4983,-360 406.4983,-396"/>
<text text-anchor="middle" x="327.9983" y="-374.3" font-family="Times,serif" font-size="14.00" fill="#000000">aws_key_pair.key_course</text>
</g>
<!-- [root] provider.aws -->
<g id="node15" class="node">
<title>[root] provider.aws</title>
<polygon fill="none" stroke="#000000" points="412.9983,-108 333.065,-90 412.9983,-72 492.9317,-90 412.9983,-108"/>
<text text-anchor="middle" x="412.9983" y="-86.3" font-family="Times,serif" font-size="14.00" fill="#000000">provider.aws</text>
</g>
<!-- [root] aws_key_pair.key_course&#45;&gt;[root] provider.aws -->
<g id="edge7" class="edge">
<title>[root] aws_key_pair.key_course&#45;&gt;[root] provider.aws</title>
<path fill="none" stroke="#000000" d="M249.2776,-370.099C176.2313,-358.0891 71.5567,-327.8814 21.9983,-252 -4.2487,-211.8118 -9.5357,-180.1884 21.9983,-144 42.6051,-120.3517 233.7419,-102.9081 340.9383,-94.8905"/>
<polygon fill="#000000" stroke="#000000" points="341.3267,-98.3714 351.0416,-94.1441 340.8109,-91.3904 341.3267,-98.3714"/>
</g>
<!-- [root] aws_key_pair.key_course2&#45;&gt;[root] provider.aws -->
<g id="edge8" class="edge">
<title>[root] aws_key_pair.key_course2&#45;&gt;[root] provider.aws</title>
<path fill="none" stroke="#000000" d="M412.9983,-143.8314C412.9983,-136.131 412.9983,-126.9743 412.9983,-118.4166"/>
<polygon fill="#000000" stroke="#000000" points="416.4984,-118.4132 412.9983,-108.4133 409.4984,-118.4133 416.4984,-118.4132"/>
</g>
<!-- [root] aws_route_table.rtb_course -->
<g id="node5" class="node">
<title>[root] aws_route_table.rtb_course</title>
<polygon fill="none" stroke="#000000" points="1249.9983,-324 1083.9983,-324 1083.9983,-288 1249.9983,-288 1249.9983,-324"/>
<text text-anchor="middle" x="1166.9983" y="-302.3" font-family="Times,serif" font-size="14.00" fill="#000000">aws_route_table.rtb_course</text>
</g>
<!-- [root] aws_route_table.rtb_course&#45;&gt;[root] aws_internet_gateway.gw_course -->
<g id="edge9" class="edge">
<title>[root] aws_route_table.rtb_course&#45;&gt;[root] aws_internet_gateway.gw_course</title>
<path fill="none" stroke="#000000" d="M1187.6904,-287.8314C1197.6931,-279.0485 1209.8534,-268.3712 1220.6983,-258.8489"/>
<polygon fill="#000000" stroke="#000000" points="1223.1078,-261.3909 1228.3129,-252.1628 1218.4892,-256.1308 1223.1078,-261.3909"/>
</g>
<!-- [root] aws_route_table_association.rtbl_course_subnet_1 -->
<g id="node6" class="node">
<title>[root] aws_route_table_association.rtbl_course_subnet_1</title>
<polygon fill="none" stroke="#000000" points="716.9983,-396 424.9983,-396 424.9983,-360 716.9983,-360 716.9983,-396"/>
<text text-anchor="middle" x="570.9983" y="-374.3" font-family="Times,serif" font-size="14.00" fill="#000000">aws_route_table_association.rtbl_course_subnet_1</text>
</g>
<!-- [root] aws_route_table_association.rtbl_course_subnet_1&#45;&gt;[root] aws_route_table.rtb_course -->
<g id="edge10" class="edge">
<title>[root] aws_route_table_association.rtbl_course_subnet_1&#45;&gt;[root] aws_route_table.rtb_course</title>
<path fill="none" stroke="#000000" d="M717.1779,-360.3407C828.521,-346.8899 978.4466,-328.7781 1073.9333,-317.2428"/>
<polygon fill="#000000" stroke="#000000" points="1074.3542,-320.7174 1083.8623,-316.0433 1073.5146,-313.768 1074.3542,-320.7174"/>
</g>
<!-- [root] aws_route_table_association.rtbl_course_subnet_1&#45;&gt;[root] aws_subnet.subnet_course -->
<g id="edge11" class="edge">
<title>[root] aws_route_table_association.rtbl_course_subnet_1&#45;&gt;[root] aws_subnet.subnet_course</title>
<path fill="none" stroke="#000000" d="M435.0761,-359.9995C365.4801,-349.7269 288.6614,-336.4509 255.9983,-324 214.0571,-308.0123 171.0703,-279.2083 143.1161,-258.4871"/>
<polygon fill="#000000" stroke="#000000" points="145.0369,-255.5524 134.9411,-252.3391 140.8295,-261.1469 145.0369,-255.5524"/>
</g>
<!-- [root] aws_route_table_association.rtbl_course_subnet_2 -->
<g id="node7" class="node">
<title>[root] aws_route_table_association.rtbl_course_subnet_2</title>
<polygon fill="none" stroke="#000000" points="1064.9983,-396 772.9983,-396 772.9983,-360 1064.9983,-360 1064.9983,-396"/>
<text text-anchor="middle" x="918.9983" y="-374.3" font-family="Times,serif" font-size="14.00" fill="#000000">aws_route_table_association.rtbl_course_subnet_2</text>
</g>
<!-- [root] aws_route_table_association.rtbl_course_subnet_2&#45;&gt;[root] aws_route_table.rtb_course -->
<g id="edge12" class="edge">
<title>[root] aws_route_table_association.rtbl_course_subnet_2&#45;&gt;[root] aws_route_table.rtb_course</title>
<path fill="none" stroke="#000000" d="M981.2591,-359.9243C1015.7518,-349.9103 1058.8013,-337.412 1094.7683,-326.97"/>
<polygon fill="#000000" stroke="#000000" points="1096.0844,-330.2325 1104.712,-324.0831 1094.1326,-323.5101 1096.0844,-330.2325"/>
</g>
<!-- [root] aws_subnet.subnet_course2 -->
<g id="node12" class="node">
<title>[root] aws_subnet.subnet_course2</title>
<polygon fill="none" stroke="#000000" points="1002.4983,-324 835.4983,-324 835.4983,-288 1002.4983,-288 1002.4983,-324"/>
<text text-anchor="middle" x="918.9983" y="-302.3" font-family="Times,serif" font-size="14.00" fill="#000000">aws_subnet.subnet_course2</text>
</g>
<!-- [root] aws_route_table_association.rtbl_course_subnet_2&#45;&gt;[root] aws_subnet.subnet_course2 -->
<g id="edge13" class="edge">
<title>[root] aws_route_table_association.rtbl_course_subnet_2&#45;&gt;[root] aws_subnet.subnet_course2</title>
<path fill="none" stroke="#000000" d="M918.9983,-359.8314C918.9983,-352.131 918.9983,-342.9743 918.9983,-334.4166"/>
<polygon fill="#000000" stroke="#000000" points="922.4984,-334.4132 918.9983,-324.4133 915.4984,-334.4133 922.4984,-334.4132"/>
</g>
<!-- [root] aws_route_table_association.rtbl_course_subnet_3 -->
<g id="node8" class="node">
<title>[root] aws_route_table_association.rtbl_course_subnet_3</title>
<polygon fill="none" stroke="#000000" points="1374.9983,-396 1082.9983,-396 1082.9983,-360 1374.9983,-360 1374.9983,-396"/>
<text text-anchor="middle" x="1228.9983" y="-374.3" font-family="Times,serif" font-size="14.00" fill="#000000">aws_route_table_association.rtbl_course_subnet_3</text>
</g>
<!-- [root] aws_route_table_association.rtbl_course_subnet_3&#45;&gt;[root] aws_route_table.rtb_course -->
<g id="edge14" class="edge">
<title>[root] aws_route_table_association.rtbl_course_subnet_3&#45;&gt;[root] aws_route_table.rtb_course</title>
<path fill="none" stroke="#000000" d="M1213.3531,-359.8314C1206.1393,-351.454 1197.4413,-341.3531 1189.5379,-332.1749"/>
<polygon fill="#000000" stroke="#000000" points="1192.0317,-329.7071 1182.8542,-324.4133 1186.7273,-334.2748 1192.0317,-329.7071"/>
</g>
<!-- [root] aws_subnet.subnet_course3 -->
<g id="node13" class="node">
<title>[root] aws_subnet.subnet_course3</title>
<polygon fill="none" stroke="#000000" points="1557.4983,-324 1390.4983,-324 1390.4983,-288 1557.4983,-288 1557.4983,-324"/>
<text text-anchor="middle" x="1473.9983" y="-302.3" font-family="Times,serif" font-size="14.00" fill="#000000">aws_subnet.subnet_course3</text>
</g>
<!-- [root] aws_route_table_association.rtbl_course_subnet_3&#45;&gt;[root] aws_subnet.subnet_course3 -->
<g id="edge15" class="edge">
<title>[root] aws_route_table_association.rtbl_course_subnet_3&#45;&gt;[root] aws_subnet.subnet_course3</title>
<path fill="none" stroke="#000000" d="M1290.506,-359.9243C1324.5814,-349.9103 1367.1102,-337.412 1402.642,-326.97"/>
<polygon fill="#000000" stroke="#000000" points="1403.858,-330.2608 1412.4654,-324.0831 1401.8843,-323.5448 1403.858,-330.2608"/>
</g>
<!-- [root] aws_security_group.demo&#45;web&#45;&gt;[root] aws_vpc.example -->
<g id="edge16" class="edge">
<title>[root] aws_security_group.demo&#45;web&#45;&gt;[root] aws_vpc.example</title>
<path fill="none" stroke="#000000" d="M400.7444,-215.9243C433.6437,-205.8014 474.7933,-193.14 508.9501,-182.6302"/>
<polygon fill="#000000" stroke="#000000" points="510.3177,-185.8714 518.8461,-179.5853 508.259,-179.181 510.3177,-185.8714"/>
</g>
<!-- [root] aws_security_group.securitygroup_course&#45;&gt;[root] aws_vpc.example -->
<g id="edge17" class="edge">
<title>[root] aws_security_group.securitygroup_course&#45;&gt;[root] aws_vpc.example</title>
<path fill="none" stroke="#000000" d="M575.9983,-215.8314C575.9983,-208.131 575.9983,-198.9743 575.9983,-190.4166"/>
<polygon fill="#000000" stroke="#000000" points="579.4984,-190.4132 575.9983,-180.4133 572.4984,-190.4133 579.4984,-190.4132"/>
</g>
<!-- [root] aws_subnet.subnet_course&#45;&gt;[root] aws_vpc.example -->
<g id="edge18" class="edge">
<title>[root] aws_subnet.subnet_course&#45;&gt;[root] aws_vpc.example</title>
<path fill="none" stroke="#000000" d="M192.6093,-222.5034C208.0077,-220.3275 223.9992,-218.0817 238.9983,-216 356.7295,-199.6602 387.2777,-202.4478 503.9983,-180 505.5009,-179.711 507.0189,-179.4101 508.5478,-179.0991"/>
<polygon fill="#000000" stroke="#000000" points="509.7005,-182.4317 518.7465,-176.9163 508.2354,-175.5867 509.7005,-182.4317"/>
</g>
<!-- [root] var.avalability_zone_a -->
<g id="node17" class="node">
<title>[root] var.avalability_zone_a</title>
<polygon fill="none" stroke="#000000" points="306.9983,-180 172.9983,-180 172.9983,-144 312.9983,-144 312.9983,-174 306.9983,-180"/>
<polyline fill="none" stroke="#000000" points="306.9983,-180 306.9983,-174 "/>
<polyline fill="none" stroke="#000000" points="312.9983,-174 306.9983,-174 "/>
<text text-anchor="middle" x="242.9983" y="-158.3" font-family="Times,serif" font-size="14.00" fill="#000000">var.avalability_zone_a</text>
</g>
<!-- [root] aws_subnet.subnet_course&#45;&gt;[root] var.avalability_zone_a -->
<g id="edge19" class="edge">
<title>[root] aws_subnet.subnet_course&#45;&gt;[root] var.avalability_zone_a</title>
<path fill="none" stroke="#000000" d="M145.0552,-215.8314C161.966,-206.5368 182.7369,-195.1208 200.7925,-185.1971"/>
<polygon fill="#000000" stroke="#000000" points="202.8743,-188.0468 209.9521,-180.1628 199.5027,-181.9122 202.8743,-188.0468"/>
</g>
<!-- [root] var.subnet_block_1 -->
<g id="node22" class="node">
<title>[root] var.subnet_block_1</title>
<polygon fill="none" stroke="#000000" points="148.4983,-180 31.4983,-180 31.4983,-144 154.4983,-144 154.4983,-174 148.4983,-180"/>
<polyline fill="none" stroke="#000000" points="148.4983,-180 148.4983,-174 "/>
<polyline fill="none" stroke="#000000" points="154.4983,-174 148.4983,-174 "/>
<text text-anchor="middle" x="92.9983" y="-158.3" font-family="Times,serif" font-size="14.00" fill="#000000">var.subnet_block_1</text>
</g>
<!-- [root] aws_subnet.subnet_course&#45;&gt;[root] var.subnet_block_1 -->
<g id="edge20" class="edge">
<title>[root] aws_subnet.subnet_course&#45;&gt;[root] var.subnet_block_1</title>
<path fill="none" stroke="#000000" d="M107.2038,-215.8314C105.1495,-208.0463 102.7023,-198.7729 100.4228,-190.1347"/>
<polygon fill="#000000" stroke="#000000" points="103.7932,-189.1892 97.8574,-180.4133 97.0249,-190.9753 103.7932,-189.1892"/>
</g>
<!-- [root] aws_subnet.subnet_course2&#45;&gt;[root] aws_vpc.example -->
<g id="edge21" class="edge">
<title>[root] aws_subnet.subnet_course2&#45;&gt;[root] aws_vpc.example</title>
<path fill="none" stroke="#000000" d="M890.0616,-287.81C874.7588,-277.8 855.9005,-264.8328 839.9983,-252 821.8937,-237.3898 822.4542,-227.0812 801.9983,-216 752.595,-189.2375 690.0516,-175.6117 643.2899,-168.7501"/>
<polygon fill="#000000" stroke="#000000" points="643.6514,-165.2667 633.2627,-167.3464 642.6809,-172.1991 643.6514,-165.2667"/>
</g>
<!-- [root] var.avalability_zone_b -->
<g id="node18" class="node">
<title>[root] var.avalability_zone_b</title>
<polygon fill="none" stroke="#000000" points="982.9983,-252 848.9983,-252 848.9983,-216 988.9983,-216 988.9983,-246 982.9983,-252"/>
<polyline fill="none" stroke="#000000" points="982.9983,-252 982.9983,-246 "/>
<polyline fill="none" stroke="#000000" points="988.9983,-246 982.9983,-246 "/>
<text text-anchor="middle" x="918.9983" y="-230.3" font-family="Times,serif" font-size="14.00" fill="#000000">var.avalability_zone_b</text>
</g>
<!-- [root] aws_subnet.subnet_course2&#45;&gt;[root] var.avalability_zone_b -->
<g id="edge22" class="edge">
<title>[root] aws_subnet.subnet_course2&#45;&gt;[root] var.avalability_zone_b</title>
<path fill="none" stroke="#000000" d="M918.9983,-287.8314C918.9983,-280.131 918.9983,-270.9743 918.9983,-262.4166"/>
<polygon fill="#000000" stroke="#000000" points="922.4984,-262.4132 918.9983,-252.4133 915.4984,-262.4133 922.4984,-262.4132"/>
</g>
<!-- [root] var.subnet_block_2 -->
<g id="node23" class="node">
<title>[root] var.subnet_block_2</title>
<polygon fill="none" stroke="#000000" points="1124.4983,-252 1007.4983,-252 1007.4983,-216 1130.4983,-216 1130.4983,-246 1124.4983,-252"/>
<polyline fill="none" stroke="#000000" points="1124.4983,-252 1124.4983,-246 "/>
<polyline fill="none" stroke="#000000" points="1130.4983,-246 1124.4983,-246 "/>
<text text-anchor="middle" x="1068.9983" y="-230.3" font-family="Times,serif" font-size="14.00" fill="#000000">var.subnet_block_2</text>
</g>
<!-- [root] aws_subnet.subnet_course2&#45;&gt;[root] var.subnet_block_2 -->
<g id="edge23" class="edge">
<title>[root] aws_subnet.subnet_course2&#45;&gt;[root] var.subnet_block_2</title>
<path fill="none" stroke="#000000" d="M956.8497,-287.8314C976.733,-278.2874 1001.2765,-266.5065 1022.3289,-256.4013"/>
<polygon fill="#000000" stroke="#000000" points="1023.9185,-259.5207 1031.4192,-252.038 1020.8894,-253.21 1023.9185,-259.5207"/>
</g>
<!-- [root] aws_subnet.subnet_course3&#45;&gt;[root] aws_vpc.example -->
<g id="edge24" class="edge">
<title>[root] aws_subnet.subnet_course3&#45;&gt;[root] aws_vpc.example</title>
<path fill="none" stroke="#000000" d="M1488.2483,-287.7325C1502.0917,-267.6515 1518.5237,-235.6396 1499.9983,-216 1470.6544,-184.8911 851.0219,-168.1766 643.2394,-163.4308"/>
<polygon fill="#000000" stroke="#000000" points="643.1498,-159.928 633.0731,-163.2007 642.9913,-166.9262 643.1498,-159.928"/>
</g>
<!-- [root] var.avalability_zone_c -->
<g id="node19" class="node">
<title>[root] var.avalability_zone_c</title>
<polygon fill="none" stroke="#000000" points="1680.9983,-252 1546.9983,-252 1546.9983,-216 1686.9983,-216 1686.9983,-246 1680.9983,-252"/>
<polyline fill="none" stroke="#000000" points="1680.9983,-252 1680.9983,-246 "/>
<polyline fill="none" stroke="#000000" points="1686.9983,-246 1680.9983,-246 "/>
<text text-anchor="middle" x="1616.9983" y="-230.3" font-family="Times,serif" font-size="14.00" fill="#000000">var.avalability_zone_c</text>
</g>
<!-- [root] aws_subnet.subnet_course3&#45;&gt;[root] var.avalability_zone_c -->
<g id="edge25" class="edge">
<title>[root] aws_subnet.subnet_course3&#45;&gt;[root] var.avalability_zone_c</title>
<path fill="none" stroke="#000000" d="M1510.0833,-287.8314C1528.7973,-278.4089 1551.8416,-266.8062 1571.7383,-256.7883"/>
<polygon fill="#000000" stroke="#000000" points="1573.5672,-259.7861 1580.925,-252.1628 1570.4192,-253.5339 1573.5672,-259.7861"/>
</g>
<!-- [root] var.subnet_block_3 -->
<g id="node24" class="node">
<title>[root] var.subnet_block_3</title>
<polygon fill="none" stroke="#000000" points="1484.4983,-252 1367.4983,-252 1367.4983,-216 1490.4983,-216 1490.4983,-246 1484.4983,-252"/>
<polyline fill="none" stroke="#000000" points="1484.4983,-252 1484.4983,-246 "/>
<polyline fill="none" stroke="#000000" points="1490.4983,-246 1484.4983,-246 "/>
<text text-anchor="middle" x="1428.9983" y="-230.3" font-family="Times,serif" font-size="14.00" fill="#000000">var.subnet_block_3</text>
</g>
<!-- [root] aws_subnet.subnet_course3&#45;&gt;[root] var.subnet_block_3 -->
<g id="edge26" class="edge">
<title>[root] aws_subnet.subnet_course3&#45;&gt;[root] var.subnet_block_3</title>
<path fill="none" stroke="#000000" d="M1462.6429,-287.8314C1457.5658,-279.7079 1451.4757,-269.9637 1445.8807,-261.0118"/>
<polygon fill="#000000" stroke="#000000" points="1448.7747,-259.0383 1440.5066,-252.4133 1442.8387,-262.7483 1448.7747,-259.0383"/>
</g>
<!-- [root] aws_vpc.example&#45;&gt;[root] provider.aws -->
<g id="edge27" class="edge">
<title>[root] aws_vpc.example&#45;&gt;[root] provider.aws</title>
<path fill="none" stroke="#000000" d="M534.8666,-143.8314C508.6075,-132.2323 474.8685,-117.3291 449.5503,-106.1457"/>
<polygon fill="#000000" stroke="#000000" points="450.8539,-102.8953 440.2924,-102.0563 448.0255,-109.2984 450.8539,-102.8953"/>
</g>
<!-- [root] var.block_cidr -->
<g id="node20" class="node">
<title>[root] var.block_cidr</title>
<polygon fill="none" stroke="#000000" points="617.4983,-108 528.4983,-108 528.4983,-72 623.4983,-72 623.4983,-102 617.4983,-108"/>
<polyline fill="none" stroke="#000000" points="617.4983,-108 617.4983,-102 "/>
<polyline fill="none" stroke="#000000" points="623.4983,-102 617.4983,-102 "/>
<text text-anchor="middle" x="575.9983" y="-86.3" font-family="Times,serif" font-size="14.00" fill="#000000">var.block_cidr</text>
</g>
<!-- [root] aws_vpc.example&#45;&gt;[root] var.block_cidr -->
<g id="edge28" class="edge">
<title>[root] aws_vpc.example&#45;&gt;[root] var.block_cidr</title>
<path fill="none" stroke="#000000" d="M575.9983,-143.8314C575.9983,-136.131 575.9983,-126.9743 575.9983,-118.4166"/>
<polygon fill="#000000" stroke="#000000" points="579.4984,-118.4132 575.9983,-108.4133 572.4984,-118.4133 579.4984,-118.4132"/>
</g>
<!-- [root] var.region -->
<g id="node21" class="node">
<title>[root] var.region</title>
<polygon fill="none" stroke="#000000" points="442.9983,-36 376.9983,-36 376.9983,0 448.9983,0 448.9983,-30 442.9983,-36"/>
<polyline fill="none" stroke="#000000" points="442.9983,-36 442.9983,-30 "/>
<polyline fill="none" stroke="#000000" points="448.9983,-30 442.9983,-30 "/>
<text text-anchor="middle" x="412.9983" y="-14.3" font-family="Times,serif" font-size="14.00" fill="#000000">var.region</text>
</g>
<!-- [root] provider.aws&#45;&gt;[root] var.region -->
<g id="edge39" class="edge">
<title>[root] provider.aws&#45;&gt;[root] var.region</title>
<path fill="none" stroke="#000000" d="M412.9983,-71.8314C412.9983,-64.131 412.9983,-54.9743 412.9983,-46.4166"/>
<polygon fill="#000000" stroke="#000000" points="416.4984,-46.4132 412.9983,-36.4133 409.4984,-46.4133 416.4984,-46.4132"/>
</g>
<!-- [root] meta.count&#45;boundary (EachMode fixup) -->
<g id="node25" class="node">
<title>[root] meta.count&#45;boundary (EachMode fixup)</title>
<ellipse fill="none" stroke="#000000" cx="507.9983" cy="-450" rx="176.5689" ry="18"/>
<text text-anchor="middle" x="507.9983" y="-446.3" font-family="Times,serif" font-size="14.00" fill="#000000">[root] meta.count&#45;boundary (EachMode fixup)</text>
</g>
<!-- [root] meta.count&#45;boundary (EachMode fixup)&#45;&gt;[root] aws_instance.ec2_course -->
<g id="edge29" class="edge">
<title>[root] meta.count&#45;boundary (EachMode fixup)&#45;&gt;[root] aws_instance.ec2_course</title>
<path fill="none" stroke="#000000" d="M371.9559,-438.4796C314.8313,-430.5547 257.5486,-417.4392 239.9983,-396 229.8634,-383.6193 231.7454,-373.7073 239.9983,-360 247.9677,-346.7637 260.3903,-336.6019 273.8604,-328.8634"/>
<polygon fill="#000000" stroke="#000000" points="275.6243,-331.8899 282.8271,-324.12 272.3511,-325.7023 275.6243,-331.8899"/>
</g>
<!-- [root] meta.count&#45;boundary (EachMode fixup)&#45;&gt;[root] aws_key_pair.key_course -->
<g id="edge30" class="edge">
<title>[root] meta.count&#45;boundary (EachMode fixup)&#45;&gt;[root] aws_key_pair.key_course</title>
<path fill="none" stroke="#000000" d="M463.9654,-432.3868C439.401,-422.5611 408.5915,-410.2373 382.5143,-399.8064"/>
<polygon fill="#000000" stroke="#000000" points="383.726,-396.5215 373.1414,-396.0572 381.1263,-403.0208 383.726,-396.5215"/>
</g>
<!-- [root] meta.count&#45;boundary (EachMode fixup)&#45;&gt;[root] aws_route_table_association.rtbl_course_subnet_1 -->
<g id="edge31" class="edge">
<title>[root] meta.count&#45;boundary (EachMode fixup)&#45;&gt;[root] aws_route_table_association.rtbl_course_subnet_1</title>
<path fill="none" stroke="#000000" d="M523.8959,-431.8314C531.2261,-423.454 540.0644,-413.3531 548.0953,-404.1749"/>
<polygon fill="#000000" stroke="#000000" points="550.9357,-406.2438 554.8867,-396.4133 545.6676,-401.6343 550.9357,-406.2438"/>
</g>
<!-- [root] meta.count&#45;boundary (EachMode fixup)&#45;&gt;[root] aws_route_table_association.rtbl_course_subnet_2 -->
<g id="edge32" class="edge">
<title>[root] meta.count&#45;boundary (EachMode fixup)&#45;&gt;[root] aws_route_table_association.rtbl_course_subnet_2</title>
<path fill="none" stroke="#000000" d="M596.9261,-434.4214C658.2177,-423.6842 740.1822,-409.3254 806.085,-397.7804"/>
<polygon fill="#000000" stroke="#000000" points="806.8563,-401.1987 816.1024,-396.0256 805.6484,-394.3037 806.8563,-401.1987"/>
</g>
<!-- [root] meta.count&#45;boundary (EachMode fixup)&#45;&gt;[root] aws_route_table_association.rtbl_course_subnet_3 -->
<g id="edge33" class="edge">
<title>[root] meta.count&#45;boundary (EachMode fixup)&#45;&gt;[root] aws_route_table_association.rtbl_course_subnet_3</title>
<path fill="none" stroke="#000000" d="M636.0672,-437.572C655.4764,-435.6984 675.2674,-433.7936 693.9983,-432 859.6552,-416.1375 903.6268,-413.8686 1072.9696,-396.0974"/>
<polygon fill="#000000" stroke="#000000" points="1073.3964,-399.5719 1082.9753,-395.0447 1072.6639,-392.6103 1073.3964,-399.5719"/>
</g>
<!-- [root] provider.aws (close) -->
<g id="node26" class="node">
<title>[root] provider.aws (close)</title>
<ellipse fill="none" stroke="#000000" cx="807.9983" cy="-450" rx="105.0817" ry="18"/>
<text text-anchor="middle" x="807.9983" y="-446.3" font-family="Times,serif" font-size="14.00" fill="#000000">[root] provider.aws (close)</text>
</g>
<!-- [root] provider.aws (close)&#45;&gt;[root] aws_instance.ec2_course -->
<g id="edge34" class="edge">
<title>[root] provider.aws (close)&#45;&gt;[root] aws_instance.ec2_course</title>
<path fill="none" stroke="#000000" d="M792.8323,-432.0876C771.5322,-407.1316 734.4099,-364.4413 725.9983,-360 675.9024,-333.5496 525.7179,-318.5387 428.6912,-311.3579"/>
<polygon fill="#000000" stroke="#000000" points="428.8238,-307.8584 418.5966,-310.6248 428.3167,-314.84 428.8238,-307.8584"/>
</g>
<!-- [root] provider.aws (close)&#45;&gt;[root] aws_key_pair.key_course -->
<g id="edge35" class="edge">
<title>[root] provider.aws (close)&#45;&gt;[root] aws_key_pair.key_course</title>
<path fill="none" stroke="#000000" d="M731.3906,-437.6044C718.902,-435.6699 706.0966,-433.7381 693.9983,-432 573.8085,-414.7327 540.5612,-416.3975 416.511,-396.0178"/>
<polygon fill="#000000" stroke="#000000" points="417.0655,-392.562 406.6277,-394.3794 415.9206,-399.4678 417.0655,-392.562"/>
</g>
<!-- [root] provider.aws (close)&#45;&gt;[root] aws_route_table_association.rtbl_course_subnet_1 -->
<g id="edge36" class="edge">
<title>[root] provider.aws (close)&#45;&gt;[root] aws_route_table_association.rtbl_course_subnet_1</title>
<path fill="none" stroke="#000000" d="M756.2806,-434.2883C722.273,-423.9568 677.37,-410.3155 640.2863,-399.0495"/>
<polygon fill="#000000" stroke="#000000" points="641.1309,-395.6482 630.5453,-396.0902 639.0961,-402.346 641.1309,-395.6482"/>
</g>
<!-- [root] provider.aws (close)&#45;&gt;[root] aws_route_table_association.rtbl_course_subnet_2 -->
<g id="edge37" class="edge">
<title>[root] provider.aws (close)&#45;&gt;[root] aws_route_table_association.rtbl_course_subnet_2</title>
<path fill="none" stroke="#000000" d="M834.8684,-432.5708C849.2686,-423.2301 867.21,-411.5924 882.8209,-401.4664"/>
<polygon fill="#000000" stroke="#000000" points="884.7317,-404.3989 891.2166,-396.0206 880.9223,-398.5262 884.7317,-404.3989"/>
</g>
<!-- [root] provider.aws (close)&#45;&gt;[root] aws_route_table_association.rtbl_course_subnet_3 -->
<g id="edge38" class="edge">
<title>[root] provider.aws (close)&#45;&gt;[root] aws_route_table_association.rtbl_course_subnet_3</title>
<path fill="none" stroke="#000000" d="M882.7796,-437.2108C946.7576,-426.2692 1039.8943,-410.3408 1113.4566,-397.7601"/>
<polygon fill="#000000" stroke="#000000" points="1114.4347,-401.1437 1123.7016,-396.008 1113.2546,-394.2439 1114.4347,-401.1437"/>
</g>
<!-- [root] root -->
<g id="node27" class="node">
<title>[root] root</title>
<ellipse fill="none" stroke="#000000" cx="657.9983" cy="-522" rx="47.3916" ry="18"/>
<text text-anchor="middle" x="657.9983" y="-518.3" font-family="Times,serif" font-size="14.00" fill="#000000">[root] root</text>
</g>
<!-- [root] root&#45;&gt;[root] meta.count&#45;boundary (EachMode fixup) -->
<g id="edge40" class="edge">
<title>[root] root&#45;&gt;[root] meta.count&#45;boundary (EachMode fixup)</title>
<path fill="none" stroke="#000000" d="M628.3632,-507.7751C607.0892,-497.5636 578.0149,-483.608 553.7709,-471.9708"/>
<polygon fill="#000000" stroke="#000000" points="555.2718,-468.809 544.742,-467.6369 552.2426,-475.1196 555.2718,-468.809"/>
</g>
<!-- [root] root&#45;&gt;[root] provider.aws (close) -->
<g id="edge41" class="edge">
<title>[root] root&#45;&gt;[root] provider.aws (close)</title>
<path fill="none" stroke="#000000" d="M687.6335,-507.7751C709.286,-497.3819 739.0189,-483.1101 763.5153,-471.3519"/>
<polygon fill="#000000" stroke="#000000" points="765.119,-474.4645 772.6196,-466.9818 762.0898,-468.1538 765.119,-474.4645"/>
</g>
</g>
</svg>
